<svg width="52" height="55" viewBox="0 0 52 55" fill="none" xmlns="http://www.w3.org/2000/svg">
<path d="M51.6608 0H0V54.009L27.5524 45.2979L51.6608 54.009V0Z" fill="#E10000"/>
<path d="M12.426 31.21C11.684 31.21 10.928 31.112 10.158 30.916C9.388 30.72 8.681 30.419 8.037 30.013C7.701 29.803 7.498 29.551 7.428 29.257C7.372 28.949 7.414 28.669 7.554 28.417C7.694 28.151 7.897 27.976 8.163 27.892C8.443 27.794 8.758 27.843 9.108 28.039C9.626 28.333 10.151 28.557 10.683 28.711C11.215 28.865 11.782 28.942 12.384 28.942C13.266 28.942 13.952 28.718 14.442 28.27C14.946 27.808 15.198 27.192 15.198 26.422C15.198 25.638 14.96 25.008 14.484 24.532C14.008 24.042 13.357 23.797 12.531 23.797C12.083 23.797 11.649 23.874 11.229 24.028C10.809 24.168 10.396 24.42 9.99 24.784C9.864 24.896 9.703 25.008 9.507 25.12C9.311 25.218 9.101 25.267 8.877 25.267C8.163 25.267 7.806 24.924 7.806 24.238V17.371C7.806 16.587 8.198 16.195 8.982 16.195H15.891C16.675 16.195 17.067 16.566 17.067 17.308C17.067 18.05 16.675 18.421 15.891 18.421H10.431V22.432C11.173 21.872 12.083 21.592 13.161 21.592C14.099 21.592 14.911 21.795 15.597 22.201C16.297 22.593 16.836 23.146 17.214 23.86C17.606 24.56 17.802 25.379 17.802 26.317C17.802 27.283 17.585 28.137 17.151 28.879C16.717 29.607 16.094 30.181 15.282 30.601C14.484 31.007 13.532 31.21 12.426 31.21ZM24.8918 31.21C23.1418 31.21 21.8048 30.552 20.8808 29.236C19.9568 27.906 19.4948 26.016 19.4948 23.566C19.4948 21.088 19.9568 19.205 20.8808 17.917C21.8048 16.629 23.1418 15.985 24.8918 15.985C26.6558 15.985 27.9928 16.629 28.9028 17.917C29.8268 19.205 30.2888 21.081 30.2888 23.545C30.2888 26.009 29.8268 27.906 28.9028 29.236C27.9788 30.552 26.6418 31.21 24.8918 31.21ZM24.8918 29.005C25.8438 29.005 26.5438 28.564 26.9918 27.682C27.4538 26.8 27.6848 25.421 27.6848 23.545C27.6848 21.669 27.4538 20.311 26.9918 19.471C26.5438 18.617 25.8438 18.19 24.8918 18.19C23.9538 18.19 23.2538 18.617 22.7918 19.471C22.3298 20.311 22.0988 21.669 22.0988 23.545C22.0988 25.421 22.3298 26.8 22.7918 27.682C23.2538 28.564 23.9538 29.005 24.8918 29.005ZM35.7896 30.888C35.6683 31.0933 35.5189 31.2147 35.3416 31.252C35.1736 31.2893 35.0103 31.2613 34.8516 31.168C34.7023 31.084 34.5996 30.958 34.5436 30.79C34.4876 30.6127 34.5203 30.4213 34.6416 30.216L39.8076 21.256C39.9289 21.0413 40.0736 20.92 40.2416 20.892C40.4189 20.8547 40.5823 20.8827 40.7316 20.976C40.8809 21.06 40.9836 21.186 41.0396 21.354C41.0956 21.522 41.0676 21.7087 40.9556 21.914L35.7896 30.888ZM34.2916 27.024C33.5076 27.024 32.8963 26.7533 32.4576 26.212C32.0189 25.6707 31.7996 24.9333 31.7996 24C31.7996 23.0667 32.0189 22.334 32.4576 21.802C32.8963 21.2607 33.5076 20.99 34.2916 20.99C35.0756 20.99 35.6869 21.2607 36.1256 21.802C36.5643 22.334 36.7836 23.0667 36.7836 24C36.7836 24.9333 36.5643 25.6707 36.1256 26.212C35.6869 26.7533 35.0756 27.024 34.2916 27.024ZM34.2916 25.848C34.6276 25.848 34.8889 25.6987 35.0756 25.4C35.2623 25.092 35.3556 24.6253 35.3556 24C35.3556 23.3747 35.2623 22.9127 35.0756 22.614C34.8889 22.3153 34.6276 22.166 34.2916 22.166C33.9556 22.166 33.6943 22.3153 33.5076 22.614C33.3209 22.9033 33.2276 23.3653 33.2276 24C33.2276 24.6347 33.3209 25.1013 33.5076 25.4C33.6943 25.6987 33.9556 25.848 34.2916 25.848ZM41.3196 31.14C40.5356 31.14 39.9243 30.8693 39.4856 30.328C39.0469 29.7867 38.8276 29.0493 38.8276 28.116C38.8276 27.1827 39.0469 26.45 39.4856 25.918C39.9243 25.3767 40.5356 25.106 41.3196 25.106C42.1036 25.106 42.7149 25.3767 43.1536 25.918C43.5923 26.45 43.8116 27.1827 43.8116 28.116C43.8116 29.0493 43.5923 29.7867 43.1536 30.328C42.7149 30.8693 42.1036 31.14 41.3196 31.14ZM41.3196 29.964C41.6556 29.964 41.9169 29.8147 42.1036 29.516C42.2903 29.208 42.3836 28.7413 42.3836 28.116C42.3836 27.4907 42.2903 27.0287 42.1036 26.73C41.9169 26.4313 41.6556 26.282 41.3196 26.282C40.9836 26.282 40.7223 26.4313 40.5356 26.73C40.3489 27.0193 40.2556 27.4813 40.2556 28.116C40.2556 28.7507 40.3489 29.2173 40.5356 29.516C40.7223 29.8147 40.9836 29.964 41.3196 29.964Z" fill="white"/>
</svg>
